<?xml version="1.0" encoding="UTF-8"?>
<svg xmlns="http://www.w3.org/2000/svg" xmlns:xlink="http://www.w3.org/1999/xlink" width="100pt" height="100pt" viewBox="0 0 100 100" version="1.1">
<g id="surface1">
<path style=" stroke:none;fill-rule:nonzero;fill:rgb(69.411765%,70.980392%,71.764706%);fill-opacity:1;" d="M 50 12 C 73.15625 12 92 28.144531 92 47.988281 C 92 67.832031 73.15625 83.976563 50 83.976563 C 46.457031 83.976563 43.011719 83.570313 39.46875 82.742188 L 37.097656 82.1875 L 35.515625 84.035156 C 34.144531 85.632813 29.550781 90.335938 21.972656 91.652344 C 23.421875 89.046875 24.515625 86.394531 25.230469 83.730469 C 25.789063 81.664063 25.890625 80.574219 25.917969 79.628906 L 26.011719 77.398438 L 24.160156 76.148438 C 13.890625 69.203125 8 58.941406 8 47.988281 C 8 28.144531 26.84375 12 50 12 M 50 8 C 24.65625 8 4 25.761719 4 47.988281 C 4 60.894531 11.066406 72.121094 21.921875 79.460938 C 21.902344 79.890625 21.9375 80.59375 21.371094 82.6875 C 20.667969 85.285156 19.253906 88.945313 16.375 93.070313 L 14.328125 96 L 17.902344 96 C 30.28125 96 37.445313 87.929688 38.554688 86.632813 C 42.242188 87.496094 46.035156 87.972656 49.996094 87.972656 C 75.339844 87.972656 95.996094 70.214844 95.996094 47.984375 C 96 25.757813 75.34375 8 50 8 Z "/>
<path style=" stroke:none;fill-rule:nonzero;fill:rgb(69.411765%,70.980392%,71.764706%);fill-opacity:1;" d="M 40.601563 30.800781 C 42.800781 28.398438 46 27.199219 50 27.199219 C 53.601563 27.199219 56.601563 28.199219 58.800781 30.398438 C 61 32.398438 62.199219 35.199219 62.199219 38.398438 C 62.199219 40.398438 61.800781 42 61 43.199219 C 60.199219 44.398438 58.601563 46.199219 56 48.601563 C 54.199219 50.398438 53 51.800781 52.398438 53 C 51.800781 54 51.601563 55.601563 51.601563 58 L 46.601563 58 C 46.601563 55.398438 47 53.199219 47.601563 51.601563 C 48.199219 50 49.601563 48.199219 51.800781 46 L 54 43.800781 C 54.601563 43.199219 55.199219 42.601563 55.601563 41.800781 C 56.398438 40.601563 56.800781 39.398438 56.800781 38 C 56.800781 36.199219 56.199219 34.601563 55.199219 33.398438 C 54.199219 32 52.199219 31.398438 49.800781 31.398438 C 46.601563 31.398438 44.398438 32.601563 43.199219 34.800781 C 42.601563 36 42.199219 38 42 40.199219 L 37 40.199219 C 37.199219 36.398438 38.199219 33.199219 40.601563 30.800781 Z M 46.601563 62.601563 L 52 62.601563 L 52 68.398438 L 46.601563 68.398438 Z "/>
</g>
</svg>
